<svg width="171" height="171" fill="none" xmlns="http://www.w3.org/2000/svg"><g clip-path="url(#clip0_1377_4050)" fill="#F15A22"><path d="M56.094 102.802c2.833 1.69 4.291 2.649 5.67 2.753 1.378.104 7.273.263 9.2-.53 2.644-1.079 2.903-3.157 2.793-3.746-.178-1.003-2.594-2.544-3.802-3.167-1.207-.623-4.24-2.414-4.737-3.072-.496-.659-6.585-9.223-6.935-9.815-.287-.484-5.406-7.738-7.844-11.597-.834.054-4.069.242-6.06 1.321-2.306 1.258-4.668 3.762-4.56 5.158.037.484.067 1.035.093 1.573a23.43 23.43 0 001.494 2.54c.708.95 1.708 2.857 2.165 3.409.456.552 9.684 13.482 12.523 15.173z"/><path d="M118.658 38.412c-7.501 2.895-10.153 7.312-14.472 20.619-3.248 9.992-3.787 11.762-3.854 12.023l-.026.019.026-.02c-.068-.09-4.645-5.13-5.75-6.743a18.838 18.838 0 00-2.813-3.517c-1.16-1.13-5.807-4.066-6.92-5.072-1.112-1.005-8.401-5.04-9.577-4.948-1.176.091-9.256 4.054-10.21 6.298a5.96 5.96 0 00-.465 2.425 23.83 23.83 0 011.984 3.51c1.046 2.38 6.53 15.905 8.205 18.413 1.675 2.507 9.474 11.377 10.189 11.344.714-.032 4.018-.584 5.033-2.67 1.014-2.084 1.916-3.528.982-6.559-.934-3.03-8.372-26.11-8.372-26.11s1.32 1.55 1.633 2.032c.314.482 3.46 9.921 5.127 14.394 1.667 4.473 3.475 11.995 3.329 13.507-.147 1.512-.453 3.205-1.737 4.304-1.284 1.098-4.67 2.654-5.023 2.667 0 0-.145 3.085-2.367 5.173-2.223 2.087-5.268 3.605-7.598 2.932 0 0-1.142 2.379-3.156 3.39-2.013 1.012-2.918 1.856-8.35 1.283 0 0-4.386-.368-8.012-2.848 0 0-7.852-7.155-9.774-9.926-1.923-2.772-6.356-8.945-6.356-8.945l-1.066-1.751C36.095 82.023 24.31 76.03 22.059 75.1c-2.644-1.064-8.828-4.53-10.718-5.962a5.09 5.09 0 00-7.02 1.252c-1.864 2.525-.849 7.54 3.289 11.974 0 0 4.643 4.494 8.041 6.082 3.398 1.587 16.611 8.504 17.762 9.27 1.151.768 7.897 10.411 9.487 12.34 1.59 1.929 10.867 14.963 12.126 16.661 1.26 1.698 8.178 9.576 14.973 12.406 0 0 1.208 2.201 2.626 4.929 1.418 2.727 3.982 7.191 4.68 7.41.696.219 7.413 2.243 16.515-.554 0 0 10.175-2.836 11.914-4.597 0 0 9.132-14.677 8.711-16.089-.422-1.413-4.765-10.767-4.566-11.819 0 0-.589-1.225.778-3.334 1.366-2.108 4.902-11.264 6.569-18.163 0 0 2.819-8.73 3.148-10.066.329-1.335-1.34-9.425-.087-15.37 0 0 .704-4.148.867-5.912.164-1.763.347-14.193 1.78-16.448 1.434-2.255 6.205-5.786 5.677-7.16-.529-1.372-2.463-6.425-9.953-3.538z"/><path d="M73.53 98.983c1.82.917 2.552 1.269 3.827 1.95.47.251 2.807.107 3.67-.678a18.225 18.225 0 002.753-3.328c.55-1.017.39-2.802-.034-3.219-1.336-1.305-9.638-9.255-10.148-10.267-.416-.826-7.15-16.296-9.475-21.636a23.97 23.97 0 00-4.7.553s-2.886.382-5.921 3.842a12.803 12.803 0 00-2.601 4.363c.34.701.725 1.454 1.114 2.153 1.172 2.092 7.044 11.347 8.672 13.99 1.629 2.645 5.152 6.741 5.585 6.941.433.2 5.468 4.443 7.258 5.336zm37.853 18.619l.629-.468 1.276 1.714.362-.27-1.277-1.713.625-.466-.245-.329-1.615 1.203.245.329zm3.79-1.113l-1.609-1.023-.551.411 1.518 2.039.344-.256-1.263-1.695.007-.006 1.884 1.233.256-.191-.645-2.155.003-.003 1.263 1.696.351-.261-1.519-2.039-.552.411.513 1.839z"/></g><defs><clipPath id="clip0_1377_4050"><path fill="#fff" transform="rotate(-36.682 110.303 35.81)" d="M0 0h121.663v121.736H0z"/></clipPath></defs></svg>